<svg width="182" height="36" viewBox="0 0 182 36" fill="none" xmlns="http://www.w3.org/2000/svg">
<path d="M11.9178 2.03089C15.4398 2.03089 18.5296 2.71928 21.1871 4.09607C23.8766 5.47285 25.9418 7.44198 27.3826 10.0034C28.8555 12.5329 29.5919 15.4786 29.5919 18.8405C29.5919 22.2024 28.8555 25.1481 27.3826 27.6775C25.9418 30.175 23.8766 32.1121 21.1871 33.4889C18.5296 34.8657 15.4398 35.5541 11.9178 35.5541H0.199097V2.03089H11.9178ZM11.6777 29.8388C15.1997 29.8388 17.9212 28.8782 19.8423 26.9571C21.7634 25.036 22.724 22.3305 22.724 18.8405C22.724 15.3505 21.7634 12.6289 19.8423 10.6758C17.9212 8.69069 15.1997 7.69813 11.6777 7.69813H6.92294V29.8388H11.6777Z" fill="#242424"/>
<path d="M46.4398 35.9863C43.8783 35.9863 41.573 35.426 39.5238 34.3053C37.4747 33.1527 35.8577 31.5358 34.6731 29.4546C33.5204 27.3734 32.9441 24.972 32.9441 22.2504C32.9441 19.5289 33.5364 17.1275 34.7211 15.0463C35.9378 12.9651 37.5867 11.3642 39.6679 10.2436C41.7491 9.09092 44.0704 8.51459 46.6319 8.51459C49.1934 8.51459 51.5147 9.09092 53.5959 10.2436C55.6771 11.3642 57.31 12.9651 58.4947 15.0463C59.7114 17.1275 60.3197 19.5289 60.3197 22.2504C60.3197 24.972 59.6954 27.3734 58.4466 29.4546C57.23 31.5358 55.565 33.1527 53.4518 34.3053C51.3706 35.426 49.0333 35.9863 46.4398 35.9863ZM46.4398 30.127C47.6565 30.127 48.7931 29.8388 49.8497 29.2625C50.9384 28.6541 51.8028 27.7576 52.4432 26.5729C53.0836 25.3882 53.4038 23.9474 53.4038 22.2504C53.4038 19.721 52.7314 17.7839 51.3866 16.4391C50.0739 15.0623 48.4569 14.3739 46.5358 14.3739C44.6147 14.3739 42.9978 15.0623 41.6851 16.4391C40.4043 17.7839 39.764 19.721 39.764 22.2504C39.764 24.7799 40.3883 26.733 41.637 28.1098C42.9178 29.4546 44.5187 30.127 46.4398 30.127Z" fill="#242424"/>
<path d="M63.5229 22.2504C63.5229 19.4969 64.0832 17.0955 65.2039 15.0463C66.3245 12.9651 67.8774 11.3642 69.8626 10.2436C71.8477 9.09092 74.121 8.51459 76.6825 8.51459C79.9803 8.51459 82.7019 9.34707 84.8471 11.012C87.0244 12.645 88.4812 14.9503 89.2176 17.928H81.9655C81.5813 16.7753 80.9249 15.8788 79.9964 15.2384C79.0998 14.5661 77.9792 14.2299 76.6344 14.2299C74.7133 14.2299 73.1925 14.9343 72.0718 16.3431C70.9512 17.7199 70.3909 19.689 70.3909 22.2504C70.3909 24.7799 70.9512 26.749 72.0718 28.1578C73.1925 29.5346 74.7133 30.223 76.6344 30.223C79.356 30.223 81.133 29.0063 81.9655 26.5729H89.2176C88.4812 29.4546 87.0244 31.7439 84.8471 33.4408C82.6699 35.1378 79.9483 35.9863 76.6825 35.9863C74.121 35.9863 71.8477 35.426 69.8626 34.3053C67.8774 33.1527 66.3245 31.5518 65.2039 29.5026C64.0832 27.4214 63.5229 25.004 63.5229 22.2504Z" fill="#242424"/>
<path d="M92.4144 22.1544C92.4144 19.4649 92.9427 17.0795 93.9994 14.9983C95.088 12.9171 96.5608 11.3162 98.4179 10.1956C100.275 9.07491 102.34 8.51459 104.613 8.51459C106.342 8.51459 107.991 8.89881 109.56 9.66725C111.129 10.4037 112.378 11.3962 113.306 12.645V0.0137329H120.126V35.5541H113.306V31.6158C112.474 32.9286 111.305 33.9852 109.8 34.7856C108.296 35.5861 106.551 35.9863 104.565 35.9863C102.324 35.9863 100.275 35.41 98.4179 34.2573C96.5608 33.1047 95.088 31.4877 93.9994 29.4065C92.9427 27.2933 92.4144 24.8759 92.4144 22.1544ZM113.354 22.2504C113.354 20.6175 113.034 19.2247 112.394 18.0721C111.754 16.8874 110.889 15.9909 109.8 15.3825C108.712 14.7422 107.543 14.422 106.294 14.422C105.046 14.422 103.893 14.7261 102.836 15.3345C101.78 15.9428 100.915 16.8394 100.243 18.024C99.6026 19.1767 99.2824 20.5535 99.2824 22.1544C99.2824 23.7553 99.6026 25.1641 100.243 26.3808C100.915 27.5655 101.78 28.478 102.836 29.1184C103.925 29.7587 105.078 30.0789 106.294 30.0789C107.543 30.0789 108.712 29.7747 109.8 29.1664C110.889 28.526 111.754 27.6295 112.394 26.4769C113.034 25.2922 113.354 23.8834 113.354 22.2504Z" fill="#242424"/>
<path d="M138.508 35.9863C135.947 35.9863 133.641 35.426 131.592 34.3053C129.543 33.1527 127.926 31.5358 126.741 29.4546C125.589 27.3734 125.012 24.972 125.012 22.2504C125.012 19.5289 125.605 17.1275 126.789 15.0463C128.006 12.9651 129.655 11.3642 131.736 10.2436C133.817 9.09092 136.139 8.51459 138.7 8.51459C141.262 8.51459 143.583 9.09092 145.664 10.2436C147.745 11.3642 149.378 12.9651 150.563 15.0463C151.78 17.1275 152.388 19.5289 152.388 22.2504C152.388 24.972 151.764 27.3734 150.515 29.4546C149.298 31.5358 147.633 33.1527 145.52 34.3053C143.439 35.426 141.102 35.9863 138.508 35.9863ZM138.508 30.127C139.725 30.127 140.861 29.8388 141.918 29.2625C143.007 28.6541 143.871 27.7576 144.511 26.5729C145.152 25.3882 145.472 23.9474 145.472 22.2504C145.472 19.721 144.8 17.7839 143.455 16.4391C142.142 15.0623 140.525 14.3739 138.604 14.3739C136.683 14.3739 135.066 15.0623 133.753 16.4391C132.473 17.7839 131.832 19.721 131.832 22.2504C131.832 24.7799 132.457 26.733 133.705 28.1098C134.986 29.4546 136.587 30.127 138.508 30.127Z" fill="#242424"/>
<path d="M155.591 22.2504C155.591 19.4969 156.152 17.0955 157.272 15.0463C158.393 12.9651 159.946 11.3642 161.931 10.2436C163.916 9.09092 166.189 8.51459 168.751 8.51459C172.049 8.51459 174.77 9.34707 176.915 11.012C179.093 12.645 180.549 14.9503 181.286 17.928H174.034C173.65 16.7753 172.993 15.8788 172.065 15.2384C171.168 14.5661 170.047 14.2299 168.703 14.2299C166.782 14.2299 165.261 14.9343 164.14 16.3431C163.019 17.7199 162.459 19.689 162.459 22.2504C162.459 24.7799 163.019 26.749 164.14 28.1578C165.261 29.5346 166.782 30.223 168.703 30.223C171.424 30.223 173.201 29.0063 174.034 26.5729H181.286C180.549 29.4546 179.093 31.7439 176.915 33.4408C174.738 35.1378 172.017 35.9863 168.751 35.9863C166.189 35.9863 163.916 35.426 161.931 34.3053C159.946 33.1527 158.393 31.5518 157.272 29.5026C156.152 27.4214 155.591 25.004 155.591 22.2504Z" fill="#242424"/>
</svg>
