<svg width="170" height="32" viewBox="0 0 170 32" fill="none" xmlns="http://www.w3.org/2000/svg">
<path d="M0.0800003 31V1.2H9.84C12.9333 1.2 15.6133 1.82666 17.88 3.08C20.1733 4.30667 21.9467 6.04 23.2 8.28C24.4533 10.52 25.08 13.12 25.08 16.08C25.08 19.0133 24.4533 21.6133 23.2 23.88C21.9467 26.12 20.1733 27.8667 17.88 29.12C15.6133 30.3733 12.9333 31 9.84 31H0.0800003ZM4.8 26.8H9.92C12.0267 26.8 13.8533 26.36 15.4 25.48C16.9733 24.6 18.1867 23.36 19.04 21.76C19.8933 20.16 20.32 18.2667 20.32 16.08C20.32 13.8933 19.88 12.0133 19 10.44C18.1467 8.84 16.9467 7.6 15.4 6.72C13.8533 5.84 12.0267 5.4 9.92 5.4H4.8V26.8ZM38.5284 31.48C36.4484 31.48 34.5418 30.9867 32.8084 30C31.1018 29.0133 29.7418 27.6667 28.7284 25.96C27.7151 24.2533 27.2084 22.32 27.2084 20.16C27.2084 17.9733 27.7151 16.04 28.7284 14.36C29.7418 12.6533 31.1018 11.32 32.8084 10.36C34.5151 9.37333 36.4218 8.88 38.5284 8.88C40.6618 8.88 42.5684 9.37333 44.2484 10.36C45.9551 11.32 47.3018 12.6533 48.2884 14.36C49.3018 16.04 49.8084 17.9733 49.8084 20.16C49.8084 22.3467 49.3018 24.2933 48.2884 26C47.2751 27.7067 45.9151 29.0533 44.2084 30.04C42.5018 31 40.6084 31.48 38.5284 31.48ZM38.5284 27.28C39.8084 27.28 40.9418 26.9733 41.9284 26.36C42.9151 25.7467 43.6884 24.9067 44.2484 23.84C44.8351 22.7467 45.1284 21.52 45.1284 20.16C45.1284 18.8 44.8351 17.5867 44.2484 16.52C43.6884 15.4533 42.9151 14.6133 41.9284 14C40.9418 13.3867 39.8084 13.08 38.5284 13.08C37.2751 13.08 36.1418 13.3867 35.1284 14C34.1418 14.6133 33.3551 15.4533 32.7684 16.52C32.2084 17.5867 31.9284 18.8 31.9284 20.16C31.9284 21.52 32.2084 22.7467 32.7684 23.84C33.3551 24.9067 34.1418 25.7467 35.1284 26.36C36.1418 26.9733 37.2751 27.28 38.5284 27.28ZM63.3012 31.48C61.1412 31.48 59.2212 30.9867 57.5412 30C55.8879 28.9867 54.5679 27.6267 53.5812 25.92C52.6212 24.2133 52.1412 22.28 52.1412 20.12C52.1412 17.9867 52.6212 16.0667 53.5812 14.36C54.5412 12.6533 55.8612 11.32 57.5412 10.36C59.2212 9.37333 61.1412 8.88 63.3012 8.88C64.7679 8.88 66.1412 9.14667 67.4212 9.68C68.7012 10.1867 69.8079 10.8933 70.7412 11.8C71.7012 12.7067 72.4079 13.76 72.8612 14.96L68.9012 16.8C68.4479 15.68 67.7146 14.7867 66.7012 14.12C65.7146 13.4267 64.5812 13.08 63.3012 13.08C62.0746 13.08 60.9679 13.3867 59.9812 14C59.0212 14.5867 58.2612 15.4267 57.7012 16.52C57.1412 17.5867 56.8612 18.8 56.8612 20.16C56.8612 21.52 57.1412 22.7467 57.7012 23.84C58.2612 24.9067 59.0212 25.7467 59.9812 26.36C60.9679 26.9733 62.0746 27.28 63.3012 27.28C64.6079 27.28 65.7412 26.9467 66.7012 26.28C67.6879 25.5867 68.4212 24.6667 68.9012 23.52L72.8612 25.4C72.4346 26.5467 71.7412 27.5867 70.7813 28.52C69.8479 29.4267 68.7412 30.1467 67.4612 30.68C66.1812 31.2133 64.7946 31.48 63.3012 31.48ZM86.9591 31.48C85.0924 31.48 83.3591 31.1333 81.7591 30.44C80.1591 29.72 78.7991 28.7467 77.6791 27.52C76.5591 26.2933 75.7324 24.88 75.1991 23.28L79.1991 21.6C79.9191 23.44 80.9724 24.8533 82.3591 25.84C83.7457 26.8267 85.3457 27.32 87.1591 27.32C88.2257 27.32 89.1591 27.16 89.9591 26.84C90.7591 26.4933 91.3724 26.0133 91.7991 25.4C92.2524 24.7867 92.4791 24.08 92.4791 23.28C92.4791 22.1867 92.1724 21.32 91.5591 20.68C90.9457 20.04 90.0391 19.5333 88.8391 19.16L83.2391 17.4C80.9991 16.7067 79.2924 15.6533 78.1191 14.24C76.9457 12.8 76.3591 11.12 76.3591 9.2C76.3591 7.52 76.7724 6.05333 77.5991 4.8C78.4257 3.52 79.5591 2.52 80.9991 1.8C82.4657 1.08 84.1324 0.719999 85.9991 0.719999C87.7857 0.719999 89.4124 1.04 90.8791 1.68C92.3457 2.29333 93.5991 3.14667 94.6391 4.24C95.7057 5.33333 96.4791 6.6 96.9591 8.04L93.0391 9.76C92.4524 8.18667 91.5324 6.97333 90.2791 6.12C89.0524 5.26666 87.6257 4.84 85.9991 4.84C85.0124 4.84 84.1457 5.01333 83.3991 5.36C82.6524 5.68 82.0657 6.16 81.6391 6.8C81.2391 7.41333 81.0391 8.13333 81.0391 8.96C81.0391 9.92 81.3457 10.7733 81.9591 11.52C82.5724 12.2667 83.5057 12.8267 84.7591 13.2L89.9591 14.84C92.3324 15.56 94.1191 16.6 95.3191 17.96C96.5191 19.2933 97.1191 20.96 97.1191 22.96C97.1191 24.6133 96.6791 26.08 95.7991 27.36C94.9457 28.64 93.7591 29.6533 92.2391 30.4C90.7191 31.12 88.9591 31.48 86.9591 31.48ZM105.627 31L98.1869 9.36H102.987L108.667 26.6H106.987L112.787 9.36H116.907L122.667 26.6H120.987L126.707 9.36H131.507L124.027 31H119.947L114.107 13.36H115.587L109.747 31H105.627ZM133.406 31V9.36H137.926V31H133.406ZM133.406 6.4V1.2H137.926V6.4H133.406ZM144.45 31V13.44H140.45V9.36H144.45V8.24C144.45 6.61333 144.784 5.25333 145.45 4.16C146.117 3.04 147.037 2.18666 148.21 1.6C149.41 1.01333 150.784 0.719999 152.33 0.719999C152.624 0.719999 152.957 0.746665 153.33 0.799998C153.704 0.826666 154.01 0.866666 154.25 0.919999V4.84C154.037 4.78667 153.797 4.76 153.53 4.76C153.264 4.73333 153.05 4.72 152.89 4.72C151.69 4.72 150.73 5 150.01 5.56C149.29 6.09333 148.93 6.98667 148.93 8.24V9.36H153.89V13.44H148.93V31H144.45ZM167.045 31.24C164.779 31.24 163.019 30.6 161.765 29.32C160.512 28.04 159.885 26.24 159.885 23.92V13.44H156.085V9.36H156.685C157.699 9.36 158.485 9.06667 159.045 8.48C159.605 7.89333 159.885 7.09333 159.885 6.08V4.4H164.405V9.36H169.325V13.44H164.405V23.72C164.405 24.4667 164.525 25.1067 164.765 25.64C165.005 26.1467 165.392 26.5467 165.925 26.84C166.459 27.1067 167.152 27.24 168.005 27.24C168.219 27.24 168.459 27.2267 168.725 27.2C168.992 27.1733 169.245 27.1467 169.485 27.12V31C169.112 31.0533 168.699 31.1067 168.245 31.16C167.792 31.2133 167.392 31.24 167.045 31.24Z" fill="#56428F"/>
</svg>
